<svg version="1.1" id="Capa_1" xmlns="http://www.w3.org/2000/svg" xmlns:xlink="http://www.w3.org/1999/xlink" x="0px" y="0px"
	 viewBox="0 0 221.437 221.437" style="enable-background:new 0 0 221.437 221.437;" xml:space="preserve">
<path d="M213.013,172.307H8.424c-4.645,0-8.424-3.779-8.424-8.424V57.554c0-4.646,3.779-8.425,8.424-8.425h204.589
	c4.645,0,8.424,3.779,8.424,8.425v106.329C221.437,168.528,217.658,172.307,213.013,172.307z M134.782,168.307h78.231
	c2.439,0,4.424-1.984,4.424-4.424V57.554c0-2.439-1.984-4.425-4.424-4.425h-78.231V168.307z M90.655,168.307h40.127V53.13H90.655
	V168.307z M8.424,53.13C5.984,53.13,4,55.115,4,57.554v106.329c0,2.439,1.984,4.424,4.424,4.424h78.231V53.13H8.424z
	 M122.994,165.221h-24.55c-1.104,0-2-0.896-2-2v-15.146c0-1.104,0.896-2,2-2h24.55c1.104,0,2,0.896,2,2v15.146
	C124.994,164.326,124.098,165.221,122.994,165.221z M100.443,161.221h20.55v-11.146h-20.55V161.221z M202.77,163.369
	c-1.104,0-2-0.896-2-2v-7.485c-1.81-0.778-3.08-2.578-3.08-4.67s1.271-3.892,3.08-4.67v-5.084c0-1.104,0.896-2,2-2s2,0.896,2,2
	v5.084c1.81,0.778,3.08,2.578,3.08,4.67s-1.271,3.892-3.08,4.67v7.485C204.77,162.473,203.875,163.369,202.77,163.369z
	 M202.77,148.134c-0.596,0-1.08,0.484-1.08,1.08s0.484,1.08,1.08,1.08s1.08-0.484,1.08-1.08S203.366,148.134,202.77,148.134z
	 M190.381,163.369h-10.576c-1.104,0-2-0.896-2-2v-7.754c0-1.104,0.896-2,2-2h10.576c1.104,0,2,0.896,2,2v7.754
	C192.381,162.473,191.486,163.369,190.381,163.369z M181.805,159.369h6.576v-3.754h-6.576V159.369z M172.972,163.369h-10.576
	c-1.104,0-2-0.896-2-2v-7.754c0-1.104,0.896-2,2-2h10.576c1.104,0,2,0.896,2,2v7.754
	C174.972,162.473,174.077,163.369,172.972,163.369z M164.396,159.369h6.576v-3.754h-6.576V159.369z M155.563,163.369h-10.576
	c-1.104,0-2-0.896-2-2v-7.754c0-1.104,0.896-2,2-2h10.576c1.104,0,2,0.896,2,2v7.754
	C157.563,162.473,156.667,163.369,155.563,163.369z M146.986,159.369h6.576v-3.754h-6.576V159.369z M69.992,163.369
	c-1.104,0-2-0.896-2-2v-5.084c-1.81-0.778-3.081-2.578-3.081-4.67s1.271-3.892,3.081-4.67v-7.485c0-1.104,0.896-2,2-2s2,0.896,2,2
	v7.485c1.81,0.778,3.08,2.578,3.08,4.67s-1.271,3.892-3.08,4.67v5.084C71.992,162.473,71.097,163.369,69.992,163.369z
	 M69.992,150.535c-0.596,0-1.081,0.484-1.081,1.08s0.485,1.08,1.081,1.08s1.08-0.484,1.08-1.08S70.588,150.535,69.992,150.535z
	 M57.911,163.369H47.335c-1.104,0-2-0.896-2-2v-7.754c0-1.104,0.896-2,2-2h10.576c1.104,0,2,0.896,2,2v7.754
	C59.911,162.473,59.016,163.369,57.911,163.369z M49.335,159.369h6.576v-3.754h-6.576V159.369z M40.502,163.369H29.925
	c-1.104,0-2-0.896-2-2v-7.754c0-1.104,0.896-2,2-2h10.577c1.104,0,2,0.896,2,2v7.754C42.502,162.473,41.606,163.369,40.502,163.369z
	 M31.925,159.369h6.577v-3.754h-6.577V159.369z M23.092,163.369H12.516c-1.104,0-2-0.896-2-2v-7.754c0-1.104,0.896-2,2-2h10.576
	c1.104,0,2,0.896,2,2v7.754C25.092,162.473,24.197,163.369,23.092,163.369z M14.516,159.369h6.576v-3.754h-6.576V159.369z
	 M190.381,149.214h-10.576c-1.104,0-2-0.896-2-2v-7.754c0-1.104,0.896-2,2-2h10.576c1.104,0,2,0.896,2,2v7.754
	C192.381,148.318,191.486,149.214,190.381,149.214z M181.805,145.214h6.576v-3.754h-6.576V145.214z M172.972,149.214h-10.576
	c-1.104,0-2-0.896-2-2v-7.754c0-1.104,0.896-2,2-2h10.576c1.104,0,2,0.896,2,2v7.754
	C174.972,148.318,174.077,149.214,172.972,149.214z M164.396,145.214h6.576v-3.754h-6.576V145.214z M155.563,149.214h-10.576
	c-1.104,0-2-0.896-2-2v-7.754c0-1.104,0.896-2,2-2h10.576c1.104,0,2,0.896,2,2v7.754
	C157.563,148.318,156.667,149.214,155.563,149.214z M146.986,145.214h6.576v-3.754h-6.576V145.214z M57.911,149.214H47.335
	c-1.104,0-2-0.896-2-2v-7.754c0-1.104,0.896-2,2-2h10.576c1.104,0,2,0.896,2,2v7.754C59.911,148.318,59.016,149.214,57.911,149.214z
	 M49.335,145.214h6.576v-3.754h-6.576V145.214z M40.502,149.214H29.925c-1.104,0-2-0.896-2-2v-7.754c0-1.104,0.896-2,2-2h10.577
	c1.104,0,2,0.896,2,2v7.754C42.502,148.318,41.606,149.214,40.502,149.214z M31.925,145.214h6.577v-3.754h-6.577V145.214z
	 M23.092,149.214H12.516c-1.104,0-2-0.896-2-2v-7.754c0-1.104,0.896-2,2-2h10.576c1.104,0,2,0.896,2,2v7.754
	C25.092,148.318,24.197,149.214,23.092,149.214z M14.516,145.214h6.576v-3.754h-6.576V145.214z M122.993,141.46
	c-1.104,0-2-0.896-2-2v-2.482c-1.81-0.778-3.08-2.579-3.08-4.67c0-2.092,1.271-3.892,3.08-4.67v-10.087c0-1.104,0.896-2,2-2
	s2,0.896,2,2v10.087c1.81,0.778,3.08,2.578,3.08,4.67s-1.271,3.892-3.081,4.67v2.482C124.993,140.564,124.098,141.46,122.993,141.46
	z M122.994,131.227c-0.596,0-1.08,0.484-1.08,1.08s0.484,1.08,1.08,1.08s1.08-0.484,1.08-1.08S123.589,131.227,122.994,131.227z
	 M110.719,141.46c-1.104,0-2-0.896-2-2v-7.485c-1.81-0.778-3.08-2.578-3.08-4.67s1.271-3.892,3.08-4.67v-5.084c0-1.104,0.896-2,2-2
	s2,0.896,2,2v5.084c1.81,0.778,3.08,2.578,3.08,4.67s-1.271,3.892-3.08,4.67v7.485C112.719,140.564,111.823,141.46,110.719,141.46z
	 M110.719,126.224c-0.596,0-1.08,0.484-1.08,1.08s0.484,1.08,1.08,1.08s1.08-0.484,1.08-1.08S111.314,126.224,110.719,126.224z
	 M98.443,141.46c-1.104,0-2-0.896-2-2v-5.084c-1.81-0.778-3.08-2.578-3.08-4.67s1.271-3.892,3.08-4.67v-7.485c0-1.104,0.896-2,2-2
	s2,0.896,2,2v7.485c1.81,0.778,3.08,2.578,3.08,4.67s-1.271,3.892-3.08,4.67v5.084C100.443,140.564,99.548,141.46,98.443,141.46z
	 M98.443,128.626c-0.596,0-1.08,0.484-1.08,1.08s0.484,1.08,1.08,1.08s1.08-0.484,1.08-1.08S99.039,128.626,98.443,128.626z
	 M176.052,131.655c-20.016,0-36.301-16.285-36.301-36.302s16.285-36.301,36.301-36.301c20.017,0,36.301,16.284,36.301,36.301
	S196.069,131.655,176.052,131.655z M176.052,63.052c-17.811,0-32.301,14.49-32.301,32.301c0,17.812,14.49,32.302,32.301,32.302
	c17.811,0,32.301-14.49,32.301-32.302C208.354,77.543,193.863,63.052,176.052,63.052z M44.885,131.655
	c-20.017,0-36.301-16.285-36.301-36.302s16.285-36.301,36.301-36.301c20.016,0,36.301,16.284,36.301,36.301
	S64.901,131.655,44.885,131.655z M44.885,63.052c-17.811,0-32.301,14.49-32.301,32.301c0,17.812,14.49,32.302,32.301,32.302
	c17.811,0,32.301-14.49,32.301-32.302C77.186,77.543,62.695,63.052,44.885,63.052z M176.052,123.988
	c-15.789,0-28.634-12.846-28.634-28.635s12.845-28.634,28.634-28.634c1.104,0,2,0.896,2,2s-0.896,2-2,2
	c-13.583,0-24.634,11.051-24.634,24.634c0,13.584,11.051,24.635,24.634,24.635c1.104,0,2,0.896,2,2S177.157,123.988,176.052,123.988
	z M44.885,123.988c-15.789,0-28.635-12.846-28.635-28.635s12.846-28.634,28.635-28.634c1.104,0,2,0.896,2,2s-0.896,2-2,2
	c-13.583,0-24.635,11.051-24.635,24.634c0,13.584,11.051,24.635,24.635,24.635c1.104,0,2,0.896,2,2S45.989,123.988,44.885,123.988z
	 M122.994,109.659c-1.104,0-2-0.896-2-2V95.783c0-1.104,0.896-2,2-2s2,0.896,2,2v11.876
	C124.994,108.763,124.098,109.659,122.994,109.659z M110.719,109.659c-1.104,0-2-0.896-2-2V95.783c0-1.104,0.896-2,2-2s2,0.896,2,2
	v11.876C112.719,108.763,111.823,109.659,110.719,109.659z M98.443,109.659c-1.104,0-2-0.896-2-2V95.783c0-1.104,0.896-2,2-2
	s2,0.896,2,2v11.876C100.443,108.763,99.548,109.659,98.443,109.659z M176.052,105.243c-5.453,0-9.889-4.437-9.889-9.89
	s4.436-9.889,9.889-9.889s9.889,4.436,9.889,9.889S181.505,105.243,176.052,105.243z M176.052,89.465
	c-3.247,0-5.889,2.642-5.889,5.889c0,3.248,2.642,5.89,5.889,5.89s5.889-2.642,5.889-5.89
	C181.941,92.106,179.299,89.465,176.052,89.465z M44.885,105.243c-5.453,0-9.889-4.437-9.889-9.89s4.436-9.889,9.889-9.889
	c5.453,0,9.889,4.436,9.889,9.889S50.337,105.243,44.885,105.243z M44.885,89.465c-3.247,0-5.889,2.642-5.889,5.889
	c0,3.248,2.642,5.89,5.889,5.89s5.889-2.642,5.889-5.89C50.773,92.106,48.132,89.465,44.885,89.465z M122.994,89.125
	c-1.104,0-2-0.896-2-2v-0.287c0-1.104,0.896-2,2-2s2,0.896,2,2v0.287C124.994,88.229,124.098,89.125,122.994,89.125z
	 M110.719,89.125c-1.104,0-2-0.896-2-2v-0.287c0-1.104,0.896-2,2-2s2,0.896,2,2v0.287C112.719,88.229,111.823,89.125,110.719,89.125
	z M98.443,89.125c-1.104,0-2-0.896-2-2v-0.287c0-1.104,0.896-2,2-2s2,0.896,2,2v0.287C100.443,88.229,99.548,89.125,98.443,89.125z
	 M122.994,80.066c-1.104,0-2-0.896-2-2v-0.287c0-1.104,0.896-2,2-2s2,0.896,2,2v0.287C124.994,79.171,124.098,80.066,122.994,80.066
	z M110.719,80.066c-1.104,0-2-0.896-2-2v-0.287c0-1.104,0.896-2,2-2s2,0.896,2,2v0.287
	C112.719,79.171,111.823,80.066,110.719,80.066z M98.443,80.066c-1.104,0-2-0.896-2-2v-0.287c0-1.104,0.896-2,2-2s2,0.896,2,2v0.287
	C100.443,79.171,99.548,80.066,98.443,80.066z M122.994,71.007c-1.104,0-2-0.896-2-2v-0.287c0-1.104,0.896-2,2-2s2,0.896,2,2v0.287
	C124.994,70.111,124.098,71.007,122.994,71.007z M110.719,71.007c-1.104,0-2-0.896-2-2v-0.287c0-1.104,0.896-2,2-2s2,0.896,2,2
	v0.287C112.719,70.111,111.823,71.007,110.719,71.007z M98.443,71.007c-1.104,0-2-0.896-2-2v-0.287c0-1.104,0.896-2,2-2s2,0.896,2,2
	v0.287C100.443,70.111,99.548,71.007,98.443,71.007z M122.994,61.948c-1.104,0-2-0.896-2-2v-0.287c0-1.104,0.896-2,2-2s2,0.896,2,2
	v0.287C124.994,61.052,124.098,61.948,122.994,61.948z M110.719,61.948c-1.104,0-2-0.896-2-2v-0.287c0-1.104,0.896-2,2-2
	s2,0.896,2,2v0.287C112.719,61.052,111.823,61.948,110.719,61.948z M98.443,61.948c-1.104,0-2-0.896-2-2v-0.287c0-1.104,0.896-2,2-2
	s2,0.896,2,2v0.287C100.443,61.052,99.548,61.948,98.443,61.948z"/>
<g>
</g>
<g>
</g>
<g>
</g>
<g>
</g>
<g>
</g>
<g>
</g>
<g>
</g>
<g>
</g>
<g>
</g>
<g>
</g>
<g>
</g>
<g>
</g>
<g>
</g>
<g>
</g>
<g>
</g>
</svg>
