<svg width="24" height="18" viewBox="0 0 24 18" fill="none" xmlns="http://www.w3.org/2000/svg">
<path d="M21.6 2.4H11.2972L9.24881 0.351609C9.02358 0.126422 8.71842 0 8.4 0H2.4C1.07681 0 0 1.07681 0 2.4V15.6C0 16.9232 1.07681 18 2.4 18H21.6C22.9232 18 24 16.9232 24 15.6V4.8C24 3.47681 22.9232 2.4 21.6 2.4ZM22.8 15.6C22.8 16.2628 22.2628 16.8 21.6 16.8H2.4C1.73719 16.8 1.2 16.2628 1.2 15.6V2.4C1.2 1.73719 1.73719 1.2 2.4 1.2H8.4L10.8 3.6H21.6C22.2628 3.6 22.8 4.13719 22.8 4.8V15.6Z" fill="black"/>
</svg>
