<svg width="32" height="24" viewBox="0 0 32 24" fill="none" xmlns="http://www.w3.org/2000/svg">
<path d="M15.1563 0.693849C13.2938 0.968848 11.8063 2.24385 11.2375 4.0626C11.0313 4.7376 11.0313 6.00635 11.2375 6.6876C11.875 8.73135 13.6813 10.0626 15.825 10.0688C16.65 10.0688 17.1563 9.95635 17.9063 9.59385C18.9063 9.1126 19.5813 8.4376 20.0938 7.4251C20.475 6.66885 20.5813 6.11885 20.55 5.16885C20.525 4.55635 20.4875 4.30635 20.35 3.90635C20.1063 3.19385 19.7375 2.6001 19.1938 2.05635C18.425 1.2876 17.5188 0.843848 16.4188 0.693849C15.8688 0.618848 15.6938 0.618848 15.1563 0.693849ZM17 1.8751C18.125 2.25635 19.0188 3.1501 19.3813 4.2626C19.575 4.85635 19.5938 5.8501 19.4125 6.3751C18.9563 7.7251 18.0313 8.6001 16.7 8.94385C15.4938 9.2501 14.2188 8.91885 13.275 8.0376C12.7813 7.58135 12.5 7.14385 12.2688 6.4876C12.0563 5.88135 12.0438 4.93135 12.2438 4.3126C12.6375 3.0751 13.8063 2.00635 15.0313 1.75635C15.5375 1.65635 16.5313 1.7126 17 1.8751Z" fill="black"/>
<path d="M24.875 3.96875C23.6125 4.25625 22.5125 5.2625 22.1188 6.5C21.9625 6.975 21.9313 7.9875 22.0563 8.4375C22.225 9.05 22.5625 9.625 23.0188 10.0938C23.5313 10.6063 23.875 10.825 24.5063 11.0375C25.45 11.3563 26.4 11.2813 27.35 10.8188C29.8375 9.5875 30.0688 6.1125 27.7688 4.5375C26.9438 3.975 25.8188 3.75625 24.875 3.96875ZM26.4438 5.0375C26.9188 5.18125 27.2438 5.3875 27.6188 5.78125C28.8625 7.09375 28.4375 9.175 26.7688 9.95C25.6813 10.4625 24.275 10.1125 23.55 9.15625C23.1563 8.64375 23.0375 8.25625 23.0313 7.53125C23.0313 6.95625 23.05 6.875 23.2313 6.48125C23.5563 5.79375 24.175 5.25625 24.9063 5.025C25.2625 4.9125 26.0438 4.91875 26.4438 5.0375Z" fill="black"/>
<path d="M5.56872 4.225C4.63122 4.425 3.78122 5 3.25622 5.78125C2.26872 7.25625 2.46872 9.16875 3.73122 10.4125C4.38122 11.0563 5.44372 11.5 6.34372 11.5C7.89997 11.5 9.39997 10.3875 9.88123 8.875C10.0812 8.2625 10.0687 7.3125 9.85623 6.7C9.63123 6.05625 9.34997 5.6125 8.86247 5.15625C7.97497 4.3125 6.74997 3.96875 5.56872 4.225ZM7.43747 5.41875C8.18747 5.775 8.64997 6.30625 8.88747 7.0875C9.26247 8.3125 8.64997 9.64375 7.45622 10.2063C6.64997 10.5813 5.56872 10.5 4.84997 10C4.46872 9.74375 4.06872 9.2875 3.90622 8.91875C3.25622 7.49375 3.96872 5.84375 5.47497 5.3125C5.76872 5.2125 5.96247 5.1875 6.43747 5.20625C6.94997 5.21875 7.08747 5.25 7.43747 5.41875Z" fill="black"/>
<path d="M15.25 10.7313C13.3375 10.9188 11.5063 11.7126 10.1687 12.9376L9.74375 13.3313L9.1375 13.0438C8.4 12.6938 7.89375 12.5375 7.15625 12.4376C4.225 12.0251 1.29375 13.8376 0.33125 16.6563C0.075 17.4063 0 18.0376 0 19.3751C0 20.6063 0 20.6126 0.175 20.9438C0.3 21.1876 0.43125 21.3313 0.65625 21.4688L0.95625 21.6563L4.125 21.6751L7.3 21.6938L7.3375 21.9438C7.39375 22.3063 7.575 22.6313 7.875 22.9001C8.40625 23.3813 7.7375 23.3438 16 23.3438C24.2625 23.3438 23.5938 23.3813 24.125 22.9001C24.4813 22.5813 24.6375 22.2438 24.675 21.7376L24.7063 21.3188L27.8375 21.3001C30.0625 21.2876 31.0188 21.2563 31.1313 21.2063C31.4062 21.0876 31.7625 20.7376 31.8813 20.4688C31.9813 20.2563 32 20.0438 32 18.9938C32 17.6626 31.925 17.0313 31.6688 16.2813C31.0188 14.3751 29.5063 12.9001 27.5938 12.2938C25.8625 11.7501 23.8438 11.9938 22.35 12.9188L22.0438 13.1125L21.6562 12.7813C19.8875 11.2813 17.4813 10.5063 15.25 10.7313ZM17.2875 11.8438C20.4125 12.3813 22.8625 14.7376 23.5063 17.8251C23.6125 18.3501 23.6438 18.7501 23.6625 20.0188C23.6938 21.7001 23.6625 21.9751 23.3938 22.1813C23.2313 22.3126 23.2 22.3126 16 22.3126C8.84375 22.3126 8.7625 22.3126 8.60625 22.1876C8.3375 21.9751 8.3125 21.7751 8.3375 20.0626C8.35625 18.7251 8.38125 18.3626 8.49375 17.8251C9.1375 14.7626 11.5688 12.4001 14.6562 11.85C15.3313 11.7313 16.6063 11.725 17.2875 11.8438ZM26.9937 13.1938C28.8563 13.6688 30.3313 15.1501 30.8125 17.0251C30.9188 17.4438 30.9375 17.7188 30.9375 18.8126C30.9375 19.7313 30.9188 20.1188 30.8625 20.1751C30.8062 20.2313 30.0312 20.2501 27.7437 20.2501H24.7063L24.6688 19.1688C24.6125 17.6063 24.375 16.6501 23.7125 15.3688C23.55 15.05 23.2688 14.5876 23.0875 14.3376L22.7563 13.8813L22.9625 13.7501C24.0625 13.0751 25.6562 12.8563 26.9937 13.1938ZM7.6375 13.5876C8.16875 13.7188 9 14.0751 9 14.1625C9 14.1813 8.88125 14.3625 8.74375 14.5751C8.375 15.1125 7.84375 16.2501 7.65625 16.9063C7.4125 17.7438 7.3125 18.5438 7.3125 19.6376V20.6251H4.25625C1.65 20.6251 1.19375 20.6126 1.125 20.5313C1.06875 20.4626 1.05625 20.0751 1.075 19.0188C1.1 17.7438 1.11875 17.5438 1.24375 17.1563C1.85625 15.2938 3.33125 13.9438 5.21875 13.5313C5.8625 13.3876 6.95625 13.4125 7.6375 13.5876Z" fill="black"/>
</svg>
