<svg width="26" height="26" viewBox="0 0 26 26" fill="none" xmlns="http://www.w3.org/2000/svg">
<path d="M12.873 0.848021C10.2375 1.08669 7.82031 2.09216 5.86523 3.76794C3.86953 5.47927 2.47305 7.81521 1.91953 10.3695C1.85352 10.6742 1.79258 10.9179 1.77734 10.9179C1.76211 10.9129 1.6707 10.7961 1.57422 10.6539C1.31523 10.273 1.16797 10.1816 0.8125 10.1816C0.319922 10.1816 0.0253906 10.4761 0.0253906 10.9636V11.2582L0.914063 12.5886C1.40156 13.325 1.86367 13.975 1.93984 14.0461C2.1125 14.1883 2.36641 14.2441 2.63047 14.1933C2.79297 14.1629 2.99102 13.9902 4.02188 12.9593C5.3168 11.6593 5.34219 11.6289 5.25586 11.1871C5.21016 10.9383 4.90547 10.6336 4.65664 10.5879C4.30625 10.5218 4.12344 10.5929 3.74766 10.9535C3.53945 11.1566 3.40234 11.2582 3.40234 11.2125C3.40234 11.0347 3.75781 9.7449 3.93555 9.26755C5.50977 5.05271 9.71953 2.26482 14.2188 2.45271C19.5203 2.68122 23.7352 6.64216 24.3242 11.959C24.4766 13.3301 24.2887 14.9449 23.8215 16.3515C22.5012 20.2972 19.0074 23.0801 14.8332 23.5066C11.2938 23.8722 7.95234 22.4808 5.76367 19.7285C5.50469 19.4086 5.31172 19.2105 5.2 19.1648C4.58555 18.9109 3.96094 19.4238 4.08281 20.0789C4.14883 20.4191 5.16445 21.6074 6.01758 22.3437C7.24141 23.3898 8.54648 24.1312 10.0191 24.6035C11.1668 24.9793 12.025 25.1265 13.2793 25.1722C16.0012 25.2687 18.5199 24.5476 20.7035 23.0445C22.5977 21.7445 24.0957 19.9265 24.9793 17.8648C26.193 15.0363 26.325 12.0402 25.3602 9.14568C23.8266 4.5449 19.7488 1.31521 14.9043 0.863256C14.3813 0.817553 13.325 0.807396 12.873 0.848021Z" fill="black"/>
<path d="M13.0762 5.35234C12.8883 5.43867 12.7207 5.61641 12.6496 5.8043C12.609 5.90078 12.5938 7.18047 12.5938 9.75C12.5938 13.1066 12.6039 13.5789 12.675 13.7566C12.7461 13.9344 13.0508 14.1781 15.3512 15.9047L17.941 17.8496H18.2355C18.5656 17.8496 18.7332 17.7582 18.9312 17.4688C19.0734 17.2555 19.0836 16.9 18.9414 16.6715C18.8297 16.4836 18.916 16.5547 16.25 14.5336L14.2441 13.0152L14.2187 9.40469C14.1934 5.86016 14.1934 5.79414 14.0867 5.65703C14.0309 5.58086 13.9242 5.46914 13.8531 5.41836C13.6805 5.29141 13.2793 5.25586 13.0762 5.35234Z" fill="black"/>
</svg>
