<svg width="25" height="25" viewBox="0 0 25 25" fill="none" xmlns="http://www.w3.org/2000/svg">
<path d="M12.0467 0.798725C11.5953 0.878275 11.2013 1.04663 10.859 1.30748C10.7721 1.37222 8.77223 3.35913 5.82888 6.30618C1.26493 10.872 0.93378 11.2087 0.82093 11.3826C0.61743 11.6915 0.48608 12.0097 0.40838 12.3797C0.37508 12.5407 0.37323 12.7127 0.37323 17.2175C0.37323 21.7222 0.37508 21.8943 0.40838 22.0552C0.63593 23.1449 1.42958 23.9496 2.50998 24.1846C2.66168 24.2179 2.98173 24.2197 12.5 24.2197C22.0182 24.2197 22.3383 24.2179 22.49 24.1846C23.0413 24.0643 23.5297 23.7905 23.9052 23.3928C24.2549 23.0191 24.4824 22.5788 24.5916 22.0552C24.6249 21.8943 24.6267 21.7222 24.6267 17.2175C24.6267 12.7127 24.6249 12.5407 24.5916 12.3797C24.5139 12.0097 24.3825 11.6915 24.179 11.3826C24.0662 11.2087 23.7369 10.8757 19.1248 6.26363C14.6737 1.81252 14.1761 1.32043 14.0207 1.21683C13.7321 1.02813 13.425 0.900475 13.055 0.817225C12.8626 0.774675 12.2502 0.763575 12.0467 0.798725ZM12.7275 2.38972C12.796 2.40453 12.9125 2.44707 12.9865 2.48408C13.1123 2.54882 13.3713 2.80412 17.9686 7.40137C22.5344 11.9672 22.8211 12.2576 22.884 12.3816C23.0191 12.6424 23.0098 12.2595 23.0043 17.2767L22.9987 21.7962L22.9562 21.9035C22.8822 22.0867 22.8211 22.181 22.6953 22.305C22.564 22.4345 22.4178 22.5214 22.2402 22.5769C22.1329 22.6084 21.7944 22.6102 12.5 22.6102C3.20558 22.6102 2.86703 22.6084 2.75973 22.5769C2.58213 22.5214 2.43598 22.4345 2.30463 22.305C2.17513 22.1773 2.11038 22.0737 2.04378 21.8924L2.00123 21.7777V17.2175V12.6572L2.04563 12.537C2.06968 12.4704 2.12518 12.3631 2.16773 12.2965C2.22508 12.2095 3.56078 10.8627 7.06283 7.36438C11.6342 2.79857 11.8876 2.54882 12.0153 2.48408C12.241 2.36753 12.4778 2.33607 12.7275 2.38972Z" fill="black"/>
</svg>
