<svg viewBox="0 0 32 32" xmlns="http://www.w3.org/2000/svg">
<path d="M0.893426 0.531246C0.505926 0.724996 0.205926 1.075 0.0871755 1.48125C0.0121755 1.725 -0.000324467 4.01249 -0.000324467 16C-0.000324467 31.9312 -0.0378245 30.6312 0.455926 31.1437C0.924676 31.625 1.69968 31.7562 2.26218 31.4562C2.83093 31.1562 23.2622 17.1625 23.4059 16.975C23.7872 16.475 23.8559 15.8687 23.5934 15.3375C23.5059 15.1625 23.3747 14.9625 23.2934 14.8875C23.1247 14.7312 2.48093 0.649996 2.21843 0.512496C2.11843 0.462496 1.84968 0.406246 1.62468 0.393746C1.28093 0.374996 1.16843 0.399996 0.893426 0.531246ZM11.2684 10.4437C15.7122 13.4687 19.3434 15.9687 19.3434 16C19.3434 16.05 3.23718 27.0625 3.16218 27.0625C3.14343 27.0625 3.12468 22.0875 3.12468 16C3.12468 9.91249 3.14343 4.9375 3.16218 4.9375C3.18093 4.9375 6.83093 7.41249 11.2684 10.4437Z" />
<path d="M30.0938 2.18125C29.6375 2.3 29.2313 2.625 29.025 3.04375C28.9125 3.275 28.9062 3.6375 28.9062 16C28.9062 28.3625 28.9125 28.725 29.025 28.9562C29.3 29.5125 29.8188 29.8375 30.4375 29.8375C31.0563 29.8375 31.575 29.5062 31.8563 28.9437C31.9625 28.7312 31.9688 28.1125 31.9688 16C31.9688 3.6375 31.9625 3.275 31.85 3.04375C31.5313 2.40625 30.7375 2.0125 30.0938 2.18125Z"/>
</svg>
