<svg width="26" height="32" viewBox="0 0 26 32" xmlns="http://www.w3.org/2000/svg">
<path d="M25.4999 22.6431C24.3786 21.3456 22.2806 19.3937 22.2806 13C22.2806 8.14375 19.1188 4.25625 14.8555 3.3025V2C14.8555 0.895625 14.0245 0 12.9996 0C11.9746 0 11.1436 0.895625 11.1436 2V3.3025C6.88027 4.25625 3.71848 8.14375 3.71848 13C3.71848 19.3937 1.62049 21.3456 0.499239 22.6431C0.151025 23.0463 -0.00334994 23.5281 -0.000448156 24C0.00593577 25.025 0.752855 26 1.8625 26H24.1366C25.2463 26 25.9937 25.025 25.9996 24C26.0025 23.5281 25.8481 23.0456 25.4999 22.6431ZM3.9187 23C5.15022 21.2519 6.49665 18.3544 6.50303 13.0363C6.50303 13.0238 6.49955 13.0125 6.49955 13C6.49955 9.13375 9.40946 6 12.9996 6C16.5896 6 19.4996 9.13375 19.4996 13C19.4996 13.0125 19.4961 13.0238 19.4961 13.0363C19.5025 18.355 20.8489 21.2525 22.0804 23H3.9187ZM12.9996 32C15.0494 32 16.7121 30.2094 16.7121 28H9.28701C9.28701 30.2094 10.9497 32 12.9996 32Z"/>
</svg>
