<svg width="24" height="24" viewBox="0 0 24 24" fill="none" xmlns="http://www.w3.org/2000/svg">
<path d="M13.514 2.444L2.699 13.229C2.25 13.678 2.021 14.303 2.074 14.936L2.467 19.632C2.508 20.111 2.889 20.492 3.367 20.532L8.064 20.926C8.697 20.979 9.322 20.749 9.771 20.3L21.646 8.456C21.842 8.26 21.841 7.944 21.646 7.749L18.11 4.213C17.915 4.018 17.599 4.017 17.403 4.213L8.525 13.061C8.363 13.223 8.272 13.443 8.272 13.672V14.397C8.272 14.581 8.42 14.729 8.604 14.729H9.329C9.558 14.729 9.777 14.637 9.939 14.475L17.049 7.395L18.464 8.81L11.078 16.164C10.703 16.539 10.193 16.75 9.664 16.75H7.25C6.695 16.75 6.25 16.302 6.25 15.75V13.336C6.25 12.806 6.461 12.297 6.836 11.922L16.342 2.445C17.123 1.664 18.391 1.664 19.171 2.444L23.414 6.687C23.805 7.078 24 7.589 24 8.101C24 8.613 23.804 9.126 23.413 9.517L11.063 21.836C10.315 22.583 9.303 23 8.253 23C7.996 23 2.01 22.533 1.754 22.513C1.09 22.461 0.542 21.939 0.486 21.246C0.467 21.004 0 15 0 14.747C0 13.697 0.416 12.685 1.164 11.936L12.1 1L13.514 2.444Z" fill="white"/>
</svg>
