<svg xmlns="http://www.w3.org/2000/svg" viewBox="0 0 30 30">
  <path d="M30 17.973l-7.051 7.05a4.178 4.178 0 01-2.968 1.227c-3.715 0-5.616-4.516-2.967-7.164l6.924-6.925a3.117 3.117 0 012.207-.911c1.867 0 3.122 1.541 3.122 3.149 0 .762-.283 1.54-.917 2.175l-6.148 6.147a2.034 2.034 0 01-2.873 0 2.035 2.035 0 010-2.872l4.963-4.963 1.035 1.035-4.963 4.963a.567.567 0 10.803.803l6.15-6.147a1.657 1.657 0 00-2.343-2.342l-6.924 6.924a2.734 2.734 0 003.866 3.867l7.05-7.05L30 17.973zM8.75 10.625a1.876 1.876 0 10-3.751.001 1.876 1.876 0 003.751-.001zm9.462 3.766L16.25 11.25l-3.15 5L10 13.8l-5 7.45h8.367c.18-1.424.788-2.802 1.88-3.892l2.965-2.967zM13.52 23.75H2.5V6.25H25v2.658c.374-.078.755-.12 1.145-.12.464 0 .915.075 1.355.183V3.75H0v22.5h14.773a6.66 6.66 0 01-1.253-2.5z"/>
</svg>
