<svg viewBox="0 0 24 24"  xmlns="http://www.w3.org/2000/svg">
<path d="M11.6813 0.0515633C11.4703 0.112501 11.175 0.426563 11.1141 0.642189C11.0813 0.764065 11.0625 2.47969 11.0625 5.93906V11.0625L5.84531 11.0719L0.628125 11.0859L0.435938 11.2125C0.140625 11.4047 0.0234375 11.6344 0.0234375 12.0047C0.0234375 12.2578 0.046875 12.3422 0.15 12.5016C0.220313 12.6047 0.35625 12.7406 0.454688 12.8016L0.632812 12.9141L5.84531 12.9281L11.0625 12.9375L11.0719 18.1547L11.0859 23.3672L11.1984 23.5453C11.2594 23.6438 11.3953 23.7797 11.4984 23.85C11.6578 23.9578 11.7422 23.9766 12 23.9766C12.2578 23.9766 12.3422 23.9578 12.5016 23.85C12.6047 23.7797 12.7406 23.6438 12.8016 23.5453L12.9141 23.3672L12.9281 18.1547L12.9375 12.9375L18.1547 12.9281L23.3672 12.9141L23.5453 12.8016C23.6438 12.7406 23.7797 12.6047 23.85 12.5016C23.9578 12.3422 23.9766 12.2578 23.9766 12C23.9766 11.7422 23.9578 11.6578 23.85 11.4984C23.7797 11.3953 23.6438 11.2594 23.5453 11.1984L23.3672 11.0859L18.1547 11.0719L12.9375 11.0625L12.9281 5.84531L12.9141 0.632814L12.8016 0.454689C12.5813 0.0984383 12.0938 -0.0749989 11.6813 0.0515633Z"/>
</svg>
