<svg viewBox="0 0 32 32" xmlns="http://www.w3.org/2000/svg">
<path d="M31.1066 31.4688C31.4941 31.275 31.7941 30.925 31.9128 30.5188C31.9878 30.275 32.0003 27.9875 32.0003 16C32.0003 0.0687577 32.0378 1.36876 31.5441 0.856257C31.0753 0.375007 30.3003 0.243757 29.7378 0.543757C29.1691 0.843757 8.73782 14.8375 8.59407 15.025C8.21282 15.525 8.14407 16.1313 8.40657 16.6625C8.49407 16.8375 8.62532 17.0375 8.70657 17.1125C8.87532 17.2688 29.5191 31.35 29.7816 31.4875C29.8816 31.5375 30.1503 31.5938 30.3753 31.6063C30.7191 31.625 30.8316 31.6 31.1066 31.4688ZM20.7316 21.5563C16.2878 18.5313 12.6566 16.0313 12.6566 16C12.6566 15.95 28.7628 4.93751 28.8378 4.93751C28.8566 4.93751 28.8753 9.91251 28.8753 16C28.8753 22.0875 28.8566 27.0625 28.8378 27.0625C28.8191 27.0625 25.1691 24.5875 20.7316 21.5563Z"/>
<path d="M1.90625 29.8188C2.3625 29.7 2.76875 29.375 2.975 28.9563C3.0875 28.725 3.09375 28.3625 3.09375 16C3.09375 3.63751 3.0875 3.27501 2.975 3.04376C2.7 2.48751 2.18125 2.16251 1.5625 2.16251C0.94375 2.16251 0.425 2.49376 0.14375 3.05626C0.0374999 3.26876 0.03125 3.88751 0.03125 16C0.03125 28.3625 0.0374999 28.725 0.15 28.9563C0.46875 29.5938 1.2625 29.9875 1.90625 29.8188Z"/>
</svg>
