<svg viewBox="0 0 26 26" fill="none" xmlns="http://www.w3.org/2000/svg">
<path fill-rule="evenodd" clip-rule="evenodd" d="M13 9.38817C11.0088 9.38817 9.38925 11.0088 9.38925 13C9.38925 14.9912 11.0088 16.6108 13 16.6108C14.9912 16.6108 16.6108 14.9912 16.6108 13C16.6108 11.0088 14.9912 9.38817 13 9.38817ZM13 17.6941C10.4108 17.6941 8.30592 15.5892 8.30592 13C8.30592 10.4108 10.4108 8.30483 13 8.30483C15.5892 8.30483 17.6941 10.4108 17.6941 13C17.6941 15.5892 15.5892 17.6941 13 17.6941ZM11.7076 24.9167H14.2924C14.703 23.7207 15.0161 22.2614 16.575 21.6125C18.1957 20.9441 19.4632 21.8248 20.5129 22.3405L22.3394 20.5118C21.7891 19.3776 20.9679 18.1296 21.6147 16.5674C22.2289 15.0843 23.4986 14.7658 24.9167 14.2935V11.7065C23.5788 11.2504 22.2397 10.9395 21.6157 9.43367C20.9961 7.93867 21.6775 6.83908 22.3405 5.48708L20.5129 3.66058C19.3028 4.25317 18.1068 5.02233 16.5674 4.38425C15.0789 3.76567 14.7734 2.50575 14.2924 1.08333H11.7076C11.2483 2.41692 10.9449 3.757 9.43367 4.38317C9.03825 4.54892 8.65583 4.628 8.26692 4.628C7.35367 4.628 6.59967 4.20333 5.48708 3.66058L3.6595 5.48708C4.28133 6.76 5.01475 7.9105 4.38425 9.43367C3.76567 10.9233 2.50575 11.2255 1.08333 11.7065V14.2935C2.4115 14.7463 3.757 15.0573 4.38425 16.5663C5.01367 18.0863 4.303 19.201 3.6595 20.5129L5.48708 22.3405C7.05792 21.5551 8.03833 21.0362 9.43258 21.6157C10.9254 22.2354 11.2255 23.4986 11.7076 24.9167ZM15.0594 26H10.9395C10.2017 23.9222 10.0891 23.0609 9.01875 22.6168C7.93 22.1628 7.1435 22.7598 5.26392 23.6481L2.35083 20.735C3.29658 18.7449 3.83175 18.0646 3.38325 16.9813C2.93692 15.9077 2.09192 15.8037 0 15.0605V10.9395C2.06483 10.205 2.938 10.0923 3.38325 9.01875C3.8285 7.94517 3.30633 7.27133 2.35083 5.26392L5.26392 2.35192C7.15 3.24892 7.93542 3.83067 9.01767 3.38433C10.0923 2.938 10.1898 2.10058 10.9406 0H15.0594C15.7983 2.07783 15.9131 2.94017 16.9813 3.38325C18.0657 3.83392 18.8327 3.25433 20.7372 2.35192L23.6481 5.26392C22.6969 7.26483 22.1737 7.94733 22.6168 9.01767C23.062 10.0923 23.9081 10.1952 26 10.9395V15.0616C23.9352 15.795 23.0609 15.9088 22.6157 16.9823C22.1791 18.0386 22.6633 18.6734 23.6492 20.735L20.7372 23.6481C18.8652 22.7598 18.0646 22.1639 16.9932 22.6135C15.9228 23.0577 15.8232 23.855 15.0594 26Z" fill="black"/>
</svg>
