<svg xmlns="http://www.w3.org/2000/svg" viewBox="0 0 34 26">
  <path d="M11.316.436c-.08.06-.399.57-.724 1.129-.319.55-.604 1.022-.631 1.042-.027.02-.538.14-1.136.266-1.308.279-1.434.325-1.56.584-.186.359-.093.551.803 1.54.518.579.83.97.824 1.057 0 .08-.053.617-.12 1.202-.06.584-.1 1.129-.086 1.208.013.08.106.226.193.319.272.272.524.226 1.713-.305.584-.266 1.095-.479 1.129-.479.04 0 .544.213 1.129.479 1.195.53 1.44.577 1.72.298.205-.212.219-.478.073-1.786-.054-.478-.1-.91-.1-.97 0-.053.372-.517.83-1.022.465-.525.843-1.003.863-1.11.053-.232-.126-.61-.332-.703-.086-.04-.677-.186-1.308-.319l-1.149-.239-.59-1.03c-.32-.564-.651-1.082-.725-1.155-.172-.159-.624-.166-.816-.006zm.803 2.543c.213.365.452.71.538.77.086.054.472.166.857.253.385.08.717.166.737.186.02.02-.18.265-.438.55-.658.725-.671.758-.565 1.688.046.418.073.77.067.783-.007.007-.266-.1-.572-.239-1.029-.471-.943-.471-1.832-.086-.425.186-.784.332-.79.319-.007-.007.026-.359.072-.777.1-.93.087-.97-.564-1.687-.26-.286-.458-.531-.438-.551.02-.02.352-.107.737-.186.385-.087.77-.2.856-.253.087-.06.326-.405.532-.77.205-.372.391-.67.405-.67.006 0 .192.298.398.67zM24.637 2.475c-2.922.471-5.38 2.543-6.369 5.359-.232.664-.372 1.374-.438 2.184l-.046.571-.744.04c-1.235.053-2.251.485-3.075 1.289-.319.318-.896 1.089-.963 1.295-.013.026-.186.006-.385-.047-.478-.126-1.46-.126-1.959 0a3.91 3.91 0 00-1.726.97c-.764.73-1.176 1.56-1.269 2.61-.046.49-.046.49-.259.53-.352.067-1.241.532-1.607.844-.923.777-1.447 1.846-1.527 3.081a4.281 4.281 0 002.278 4.005c.91.471.983.478 4.555.478h3.168l.186-.16c.152-.133.186-.212.186-.458 0-.359-.147-.544-.492-.644-.146-.04-1.428-.067-3.2-.067-2.796 0-2.982-.006-3.354-.132-1.76-.605-2.55-2.723-1.6-4.31.272-.452.81-.943 1.268-1.162.2-.093.604-.213.903-.266.823-.14.963-.332.85-1.109-.173-1.109.478-2.284 1.527-2.769.3-.133.512-.18.983-.2.538-.026.644-.006 1.03.153.763.32.836.333 1.082.22.18-.087.252-.193.398-.565.578-1.44 1.733-2.277 3.161-2.277 1.973.006 3.58 1.852 3.247 3.738-.139.837-.146.95-.033 1.13.193.291.432.344.977.212.604-.146 1.447-.146 1.959 0a3.882 3.882 0 012.65 2.642c.159.545.145 1.488-.027 2.04-.386 1.228-1.428 2.237-2.63 2.556-.292.073-.757.1-1.826.1-.784 0-1.54.033-1.674.066-.524.146-.684.77-.285 1.109.172.153.206.153 1.852.153 1.461 0 1.747-.02 2.205-.133a5.077 5.077 0 003.679-3.686c.246-.943.166-2.244-.18-3.068-.046-.126-.072-.252-.059-.279.02-.033.18-.073.359-.1.484-.066 1.514-.404 2.071-.683a7.854 7.854 0 002.125-1.547c1.236-1.222 2.02-2.73 2.291-4.383.14-.89.133-1.023-.086-1.269-.153-.172-.239-.212-.465-.212-.259 0-.305.033-.99.724-.79.803-1.188 1.069-2.058 1.38-.558.193-.63.207-1.58.207-.87 0-1.056-.02-1.461-.153-2.112-.704-3.433-2.417-3.533-4.562-.047-1.076.173-1.952.717-2.862.273-.458.883-1.13 1.242-1.381.445-.306.525-.777.18-1.103-.2-.186-.525-.212-1.23-.1zm-1.554 2.31c-.545 1.083-.744 2.02-.684 3.235.06 1.142.325 2.018.91 2.968.836 1.361 2.171 2.364 3.758 2.822.458.133.664.153 1.654.146 1.03 0 1.182-.02 1.713-.179.319-.1.83-.305 1.129-.458.299-.16.571-.3.604-.312.14-.06-.597 1.208-.983 1.686-1.089 1.355-2.563 2.198-4.31 2.464l-.643.093-.518-.438a5.125 5.125 0 00-3.254-1.249l-.618-.006-.033-.552a4.993 4.993 0 00-.584-2.032c-.326-.584-1.036-1.328-1.594-1.666-.399-.246-.438-.286-.478-.545-.06-.398.08-1.5.272-2.165a6.895 6.895 0 013.387-4.13c.245-.126.464-.233.491-.233.033 0-.066.246-.22.552zM3.061 8.597c-.08.067-.332.445-.564.85l-.419.724-.856.18c-.764.165-.877.205-1.036.384-.2.22-.233.459-.106.691.04.08.318.418.617.744l.538.604-.086.79c-.106.937-.073 1.176.16 1.362.265.206.557.166 1.387-.2l.757-.338.757.338c.91.399 1.156.425 1.448.127.199-.193.206-.213.16-.644-.02-.246-.06-.678-.087-.957l-.04-.511.531-.584c.724-.797.79-.95.585-1.342-.12-.239-.153-.252-1.156-.465l-.823-.179-.419-.73c-.232-.399-.484-.777-.564-.844a.759.759 0 00-.392-.113.759.759 0 00-.392.113zm1.016 2.73c.08.033.312.1.525.146l.378.086-.259.279c-.391.425-.425.518-.371 1.042l.046.459-.252-.113c-.578-.253-.73-.266-1.103-.1-.192.08-.391.166-.438.186-.073.033-.08-.053-.046-.425.053-.531.02-.624-.379-1.05l-.259-.285.286-.046c.425-.073.777-.233.863-.392.04-.073.146-.252.232-.392l.166-.259.233.399c.126.219.299.425.378.464z"/>
  <path d="M16.522 24.621c-.18.186-.2.24-.166.485a.653.653 0 001.089.418c.153-.133.186-.212.186-.471 0-.26-.033-.339-.186-.472-.279-.239-.657-.219-.923.04z"/>
</svg>
