<svg viewBox="0 0 24 25" xmlns="http://www.w3.org/2000/svg">
<path d="M13.4394 0.502506L7.87875 6.06251H1.5C0.67125 6.06251 0 6.73376 0 7.56251V16.5625C0 17.3906 0.67125 18.0625 1.5 18.0625H7.87875L13.4394 23.6219C14.3787 24.5613 16 23.9013 16 22.5613V1.56376C16 0.22188 14.3775 -0.434994 13.4394 0.502506ZM21.1394 7.25751C20.4156 6.86188 19.5025 7.12251 19.1012 7.84813C18.7019 8.57376 18.9663 9.48563 19.6919 9.88626C20.4988 10.33 21 11.1638 21 12.0625C21 12.9613 20.4987 13.795 19.6925 14.2381C18.9669 14.6388 18.7025 15.5506 19.1019 16.2763C19.5037 17.005 20.4175 17.2638 21.14 16.8669C22.9044 15.895 24.0006 14.0544 24.0006 12.0619C24.0006 10.0694 22.9044 8.22938 21.1394 7.25751Z"/>
</svg>
